<svg width="12" height="12" viewBox="0 0 12 12" fill="none" xmlns="http://www.w3.org/2000/svg">
<path opacity="0.6" d="M1.12598 0.75H2.13898V1.875H1.125V3.75H10.875V1.875H9.90399V0.75H10.875C11.1734 0.75 11.4595 0.86852 11.6705 1.0795C11.8814 1.29048 12 1.57663 12 1.875V10.875C12 11.1734 11.8814 11.4595 11.6705 11.6705C11.4595 11.8815 11.1734 12 10.875 12H1.125C0.826631 12 0.540477 11.8815 0.329498 11.6705C0.11852 11.4595 0 11.1734 0 10.875V1.875C0 1.57663 0.11852 1.29048 0.329498 1.0795C0.540477 0.86852 0.826631 0.75 1.125 0.75H1.12598ZM10.876 4.875H1.12598V10.875H10.876V4.875ZM4.12598 8.25101V9.37601H2.25098V8.25101H4.12598ZM6.939 8.25101V9.37601H5.064V8.25101H6.939ZM9.75198 8.25101V9.37601H7.87698V8.25101H9.75198ZM4.12698 6V7.125H2.25198V6H4.12698ZM6.94 6V7.125H5.065V6H6.94ZM9.75299 6V7.125H7.87799V6H9.75299ZM9.267 0V1.87399H8.13898V0H9.267ZM7.43597 0.75V1.875H4.61298V0.75H7.43597ZM3.97299 0V1.87399H2.84799V0H3.97299Z" fill="#626F9A"/>
</svg>
