<svg width="16"
     height="16"
     viewBox="0 0 16 16"
     fill="none"
     xmlns="http://www.w3.org/2000/svg">
<path d="M14.714 13.0005H2.42829V1.85769C2.42829 1.77911 2.36401 1.71483 2.28544 1.71483H1.28544C1.20686 1.71483 1.14258 1.77911 1.14258 1.85769V14.1434C1.14258 14.222 1.20686 14.2863 1.28544 14.2863H14.714C14.7926 14.2863 14.8569 14.222 14.8569 14.1434V13.1434C14.8569 13.0648 14.7926 13.0005 14.714 13.0005ZM4.31758 10.2452C4.37294 10.3005 4.46222 10.3005 4.51936 10.2452L6.98901 7.78804L9.26758 10.0809C9.32294 10.1363 9.41401 10.1363 9.46937 10.0809L14.3872 5.16483C14.4426 5.10947 14.4426 5.0184 14.3872 4.96304L13.6801 4.2559C13.6532 4.22931 13.617 4.2144 13.5792 4.2144C13.5414 4.2144 13.5051 4.22931 13.4783 4.2559L9.37115 8.36126L7.09615 6.07197C7.0693 6.04538 7.03304 6.03047 6.99526 6.03047C6.95747 6.03047 6.92122 6.04538 6.89437 6.07197L3.61222 9.33447C3.58564 9.36132 3.57072 9.39758 3.57072 9.43536C3.57072 9.47315 3.58564 9.50941 3.61222 9.53626L4.31758 10.2452Z"
      fill="black"
      fill-opacity="0.85" />
</svg>