<svg width="20" height="20" viewBox="0 0 20 20" fill="none" xmlns="http://www.w3.org/2000/svg">
<path d="M16.5475 7.9298L12.3506 7.29107L10.4744 3.30812C10.4232 3.19907 10.3389 3.11079 10.2348 3.05713C9.97359 2.92211 9.65621 3.03463 9.52563 3.30812L7.64949 7.29107L3.45256 7.9298C3.33685 7.94711 3.23106 8.00423 3.15007 8.09078C3.05215 8.19617 2.99819 8.33796 3.00005 8.48499C3.00191 8.63202 3.05943 8.77227 3.15998 8.87491L6.19652 11.9751L5.47912 16.3527C5.4623 16.4545 5.47306 16.5592 5.51018 16.655C5.54731 16.7508 5.60931 16.8337 5.68916 16.8944C5.76901 16.9552 5.86352 16.9912 5.96196 16.9986C6.0604 17.0059 6.15883 16.9843 6.24611 16.936L10 14.8692L13.754 16.936C13.8564 16.9931 13.9755 17.0122 14.0895 16.9914C14.3771 16.9395 14.5705 16.6539 14.5209 16.3527L13.8036 11.9751L16.8401 8.87491C16.9227 8.79009 16.9773 8.67931 16.9938 8.55814C17.0384 8.25522 16.8368 7.9748 16.5475 7.9298Z" fill="#DCDEE2"/>
</svg>
