<svg width="16"
     height="16"
     viewBox="0 0 16 16"
     fill="none"
     xmlns="http://www.w3.org/2000/svg">
<path d="M15.2319 2.62633L11.6747 3.0549C11.5569 3.06919 11.5069 3.21383 11.5908 3.29776L12.6497 4.35669L8.61402 8.3924L6.79616 6.57633C6.68366 6.46383 6.5033 6.46561 6.39259 6.57633L0.647945 12.3228C0.621359 12.3496 0.606445 12.3859 0.606445 12.4237C0.606445 12.4614 0.621359 12.4977 0.647945 12.5245L1.45152 13.3317C1.50687 13.387 1.59795 13.387 1.6533 13.3317L6.59437 8.3924L8.41045 10.2085C8.52295 10.3192 8.7033 10.3192 8.81402 10.2085L13.6604 5.36561L14.7194 6.42454C14.7384 6.44343 14.7622 6.4566 14.7883 6.46258C14.8144 6.46855 14.8417 6.46709 14.867 6.45834C14.8923 6.4496 14.9146 6.43393 14.9315 6.41312C14.9483 6.3923 14.959 6.36718 14.9622 6.34061L15.3908 2.78347C15.4033 2.6924 15.3247 2.61383 15.2319 2.62633Z"
      fill="black"
      fill-opacity="0.85" />
</svg>