<svg width="24" height="24" viewBox="0 0 24 24" fill="none" xmlns="http://www.w3.org/2000/svg">
<circle cx="12" cy="12" r="12" fill="#F4F8FF"/>
<g clip-path="url(#clip0_1905:5600)">
<path opacity="0.16" d="M10.3801 10.2453C10.3801 9.57425 10.9241 9.03027 11.5951 9.03027H12.2701C12.5684 9.03027 12.8101 9.27204 12.8101 9.57027C12.8101 9.86851 13.0519 10.1103 13.3501 10.1103H14.2951C15.1153 10.1103 15.7801 10.7751 15.7801 11.5953V15.4003C15.7801 16.5048 14.8847 17.4003 13.7801 17.4003H12.3801C11.2756 17.4003 10.3801 16.5048 10.3801 15.4003V10.2453Z" fill="#558EFD"/>
<path d="M16.13 9.30733L13.5361 6.7134C13.4637 6.64108 13.3661 6.6001 13.2636 6.6001H8.14328C7.92993 6.6001 7.75757 6.77246 7.75757 6.98581V17.0144C7.75757 17.2277 7.92993 17.4001 8.14328 17.4001H15.8576C16.0709 17.4001 16.2433 17.2277 16.2433 17.0144V9.58095C16.2433 9.47849 16.2023 9.37965 16.13 9.30733ZM15.3537 9.75813H13.0852V7.48965L15.3537 9.75813ZM15.3754 16.5322H8.62543V7.46795H12.2656V10.0715C12.2656 10.2058 12.3189 10.3346 12.4139 10.4295C12.5088 10.5244 12.6376 10.5778 12.7719 10.5778H15.3754V16.5322Z" fill="#558EFD"/>
</g>
<defs>
<clipPath id="clip0_1905:5600">
<rect width="10.8" height="10.8" fill="white" transform="translate(6.6001 6.6001)"/>
</clipPath>
</defs>
</svg>
