<svg width="40"
     height="40"
     viewBox="0 0 40 40"
     fill="none"
     xmlns="http://www.w3.org/2000/svg">
<g clip-path="url(#clip0_2540:3927)">
<path opacity="0.16"
      d="M17.3 15.05C17.3 13.9454 18.1954 13.05 19.3 13.05H20.45C20.947 13.05 21.35 13.4529 21.35 13.95C21.35 14.447 21.7529 14.85 22.25 14.85H24.3C25.4046 14.85 26.3 15.7454 26.3 16.85V25C26.3 26.1046 25.4046 27 24.3 27H19.3C18.1954 27 17.3 26.1046 17.3 25V15.05Z"
      fill="#558EFD" />
<path d="M26.8832 13.5121L22.56 9.18884C22.4395 9.0683 22.2767 9 22.106 9H13.5721C13.2165 9 12.9292 9.28728 12.9292 9.64286V26.3571C12.9292 26.7127 13.2165 27 13.5721 27H26.4292C26.7848 27 27.0721 26.7127 27.0721 26.3571V13.9681C27.0721 13.7973 27.0038 13.6326 26.8832 13.5121ZM25.5895 14.2634H21.8087V10.4826L25.5895 14.2634ZM25.6256 25.5536H14.3756V10.4464H20.4426V14.7857C20.4426 15.0095 20.5315 15.2241 20.6897 15.3823C20.848 15.5406 21.0626 15.6295 21.2863 15.6295H25.6256V25.5536Z"
      fill="#558EFD" />
</g>
<circle cx="20"
        cy="20"
        r="20"
        fill="#F4F8FF" />
<g clip-path="url(#clip1_2540:3927)">
<path d="M13 17H20V27H13L13 17Z"
      fill="#AFCEFF" />
<path d="M13.3 21.38L27.67 21.38C28.0677 21.38 28.39 21.0576 28.39 20.66V20.65C28.39 20.2524 28.0677 19.93 27.67 19.93H13.3C12.9023 19.93 12.58 20.2524 12.58 20.65V20.66C12.58 21.0576 12.9023 21.38 13.3 21.38Z"
      fill="#558EFD" />
<path d="M13.3 24.86L27.67 24.86C28.0677 24.86 28.39 24.5376 28.39 24.14V24.13C28.39 23.7323 28.0677 23.41 27.67 23.41H13.3C12.9023 23.41 12.58 23.7323 12.58 24.13V24.14C12.58 24.5376 12.9023 24.86 13.3 24.86Z"
      fill="#558EFD" />
<path d="M13.3 17.92L27.95 17.92C28.3477 17.92 28.67 17.5976 28.67 17.2V17.19C28.67 16.7924 28.3477 16.47 27.95 16.47H13.3C12.9023 16.47 12.58 16.7924 12.58 17.19V17.2C12.58 17.5976 12.9023 17.92 13.3 17.92Z"
      fill="#558EFD" />
<path d="M19.76 17.92V27.2599C19.76 27.6576 20.0824 27.98 20.48 27.98H20.49C20.8877 27.98 21.21 27.6576 21.21 27.2599V17.92C21.21 17.5223 20.8877 17.2 20.49 17.2H20.48C20.0824 17.2 19.76 17.5223 19.76 17.92Z"
      fill="#558EFD" />
<path d="M27.44 13.44C27.4531 13.44 27.4661 13.4426 27.4783 13.4476C27.4904 13.4527 27.5015 13.46 27.5107 13.4693C27.52 13.4786 27.5274 13.4896 27.5324 13.5017C27.5374 13.5139 27.54 13.5269 27.54 13.54V26.6C27.5416 26.6135 27.5402 26.6272 27.5357 26.6401C27.5312 26.653 27.5239 26.6647 27.5143 26.6743C27.5047 26.6839 27.493 26.6912 27.4801 26.6957C27.4672 26.7001 27.4535 26.7016 27.44 26.7H13.54C13.5135 26.7 13.4881 26.6895 13.4693 26.6707C13.4505 26.652 13.44 26.6265 13.44 26.6V13.54C13.4423 13.5142 13.4535 13.4901 13.4718 13.4718C13.4901 13.4535 13.5143 13.4423 13.54 13.44H27.44ZM27.44 12H13.54C13.1316 12 12.7399 12.1622 12.451 12.451C12.1622 12.7399 12 13.1316 12 13.54V26.6C12 27.0084 12.1622 27.4002 12.451 27.689C12.7399 27.9778 13.1316 28.14 13.54 28.14H27.44C27.8484 28.14 28.2402 27.9778 28.529 27.689C28.8178 27.4002 28.98 27.0084 28.98 26.6V13.54C28.98 13.1316 28.8178 12.7399 28.529 12.451C28.2402 12.1622 27.8484 12 27.44 12Z"
      fill="#558EFD" />
</g>
<defs>
<clipPath id="clip0_2540:3927">
<rect width="18"
      height="18"
      fill="white"
      transform="translate(11 9)" />
</clipPath>
<clipPath id="clip1_2540:3927">
<rect width="16.98"
      height="16.15"
      fill="white"
      transform="translate(12 12)" />
</clipPath>
</defs>
</svg>