<svg width="18" height="18" viewBox="0 0 18 18" fill="none" xmlns="http://www.w3.org/2000/svg">
<path d="M9 4.5V5.25H10.4529L9.61139 4.06559L9 4.5ZM8.05219 3.16604L8.66357 2.73164V2.73164L8.05219 3.16604ZM2.64706 3.75H7.72248V2.25H2.64706V3.75ZM7.4408 3.60045L8.38861 4.93441L9.61139 4.06559L8.66357 2.73164L7.4408 3.60045ZM9 3.75H2.25V5.25H9V3.75ZM3 4.5V3.375H1.5V4.5H3ZM7.72248 3.75C7.62329 3.75 7.51419 3.70373 7.4408 3.60045L8.66357 2.73164C8.44272 2.4208 8.08634 2.25 7.72248 2.25V3.75ZM2.64706 2.25C2.05452 2.25 1.5 2.71387 1.5 3.375H3C3 3.62192 2.80102 3.75 2.64706 3.75V2.25ZM2.25 5.25H14.9559V3.75H2.25V5.25ZM15 5.25V13.875H16.5V5.25H15ZM14.9559 14.25H3.04412V15.75H14.9559V14.25ZM3 14.25V4.5H1.5V14.25H3ZM3.04412 14.25C3.01808 14.25 3.00332 14.2405 2.99756 14.2351C2.99478 14.2324 2.99539 14.232 2.9969 14.2354C2.9987 14.2394 3 14.245 3 14.25H1.5C1.5 15.1182 2.23229 15.75 3.04412 15.75V14.25ZM15 13.875C15 13.8747 14.9999 13.8863 14.9956 13.9101C14.9915 13.9331 14.9844 13.9622 14.9736 13.9958C14.9515 14.0646 14.919 14.1354 14.8818 14.1948C14.8428 14.257 14.8133 14.2837 14.8076 14.2881C14.8033 14.2914 14.8554 14.25 14.9559 14.25V15.75C15.5813 15.75 15.9754 15.2747 16.1531 14.9909C16.3531 14.6715 16.5 14.2539 16.5 13.875H15ZM14.9559 5.25C14.9819 5.25 14.9967 5.25949 15.0024 5.26493C15.0052 5.26755 15.0046 5.26798 15.0031 5.26461C15.0013 5.26058 15 5.25499 15 5.25H16.5C16.5 4.38176 15.7677 3.75 14.9559 3.75V5.25Z" fill="#848FB1"/>
</svg>
