<svg width="14" height="14" viewBox="0 0 14 14" fill="none" xmlns="http://www.w3.org/2000/svg">
<path d="M6.991 13.984C8.37393 13.9842 9.72586 13.5743 10.8758 12.8061C12.0258 12.0379 12.9221 10.946 13.4515 9.66842C13.9808 8.39081 14.1195 6.98494 13.8498 5.62856C13.5801 4.27218 12.9143 3.02622 11.9364 2.04827C10.9586 1.07032 9.71279 0.40429 8.35645 0.134421C7.0001 -0.135448 5.59419 0.00297767 4.31651 0.532156C3.03883 1.06133 1.94677 1.9575 1.17844 3.10735C0.410101 4.2572 8.56692e-08 5.60907 7.15253e-08 6.99199C-0.000131262 7.91015 0.180604 8.81935 0.531876 9.66765C0.883147 10.516 1.39808 11.2867 2.04727 11.936C2.69646 12.5853 3.46718 13.1003 4.31543 13.4517C5.16368 13.8031 6.07284 13.984 6.991 13.984ZM5.91 2.984H8.073V4.984H5.91V2.984ZM5.91 5.984H8.073V10.984H5.91V5.984Z" fill="#4D88FF"/>
</svg>
