<svg width="40" height="40" viewBox="0 0 40 40" fill="none" xmlns="http://www.w3.org/2000/svg">
<circle cx="20" cy="20" r="20" fill="#F4F8FF"/>
<path d="M18 17.5C18 16.3954 18.8954 15.5 20 15.5L25.5 15.5L26.5 16.8V28.95H18V17.5Z" fill="white"/>
<path d="M12.77 24L16.05 20.72L18.75 23.42L22.5 19.68" stroke="#558EFD" stroke-width="1.44" stroke-linecap="round" stroke-linejoin="round"/>
<path d="M23.79 17.99L20.68 18.82C20.6243 18.8349 20.5735 18.8642 20.5326 18.9049C20.4917 18.9456 20.4622 18.9963 20.4471 19.0519C20.4319 19.1076 20.4315 19.1662 20.4461 19.2221C20.4606 19.2779 20.4896 19.3289 20.53 19.37L22.81 21.65C22.8511 21.6904 22.9022 21.7194 22.958 21.7339C23.0138 21.7485 23.0725 21.7482 23.1281 21.733C23.1837 21.7178 23.2344 21.6883 23.2751 21.6474C23.3158 21.6066 23.3451 21.5557 23.36 21.5L24.19 18.39C24.2038 18.3348 24.203 18.2769 24.1878 18.222C24.1726 18.1671 24.1434 18.1171 24.1031 18.0769C24.0629 18.0366 24.0129 18.0074 23.958 17.9922C23.9031 17.977 23.8453 17.9763 23.79 17.99Z" fill="#558EFD"/>
<path d="M27.06 15.51L22.73 11.19C22.6111 11.0696 22.4492 11.0013 22.28 11H13.75C13.5776 11 13.4123 11.0685 13.2904 11.1904C13.1685 11.3123 13.1 11.4776 13.1 11.65V19.49C13.1027 19.6819 13.1807 19.865 13.3173 19.9997C13.4539 20.1345 13.6381 20.21 13.83 20.21C14.021 20.21 14.2041 20.1341 14.3391 19.9991C14.4741 19.8641 14.55 19.6809 14.55 19.49V12.49H21.98L25.76 16.27V27.56H14.52V25.73C14.52 25.5381 14.4445 25.3539 14.3098 25.2173C14.175 25.0807 13.9919 25.0026 13.8 25C13.7042 25 13.6093 25.0189 13.5207 25.0556C13.4321 25.0923 13.3516 25.146 13.2838 25.2138C13.216 25.2816 13.1623 25.3621 13.1256 25.4507C13.0889 25.5392 13.07 25.6341 13.07 25.73V28.36C13.0726 28.5306 13.1423 28.6934 13.2639 28.8131C13.3855 28.9329 13.5494 29 13.72 29H26.57C26.7407 29 26.9045 28.9329 27.0261 28.8131C27.1477 28.6934 27.2174 28.5306 27.22 28.36V15.97C27.2253 15.8021 27.1683 15.6383 27.06 15.51Z" fill="#558EFD"/>
</svg>
