<svg width="131" height="21" viewBox="0 0 131 21" fill="none" xmlns="http://www.w3.org/2000/svg">
<g clip-path="url(#clip0_2051_8285)">
<path d="M110.151 19.3394H108.325V18.6932H98.704V19.3394H96.8616V7.16582H101.782C102.01 6.34879 102.181 5.51765 102.292 4.67814H94.8627V2.96582H112.067V4.67814H104.071C103.947 5.51708 103.77 6.34785 103.541 7.16582H110.151V19.3394ZM108.325 12.0637V8.83291H98.704V12.0637H108.325ZM108.325 16.9648V13.6662H98.704V16.9583L108.325 16.9648Z" fill="white"/>
<path d="M114.875 10.2415V4.12568H116.814C117.04 3.52749 117.212 2.91128 117.327 2.28412L119.19 2.52319C119.067 3.07721 118.888 3.61825 118.657 4.13858H120.989V17.6755C120.989 18.7094 120.382 19.2424 119.186 19.2424H117.854L117.417 17.6755C117.874 17.7143 118.31 17.7498 118.69 17.7498C118.779 17.7596 118.869 17.7495 118.954 17.7202C119.038 17.6908 119.114 17.6431 119.177 17.5807C119.239 17.5183 119.286 17.4429 119.314 17.3602C119.341 17.2775 119.349 17.1897 119.336 17.1037V11.8731H116.581C116.488 14.9294 115.991 17.4332 115.098 19.3684L113.766 18.1892C114.469 16.4931 114.849 14.3769 114.905 11.8731H113.766V10.2577L114.875 10.2415ZM119.303 5.71843H116.568V10.2415H119.303V5.71843ZM118.883 15.9374L117.594 16.2604C117.405 15.149 117.151 14.0488 116.834 12.9651L118.107 12.558C118.435 13.6663 118.694 14.7926 118.883 15.9309V15.9374ZM118.923 9.15274L117.687 9.47581C117.47 8.58293 117.198 7.70362 116.871 6.84273L118.087 6.45505C118.427 7.3298 118.706 8.22566 118.923 9.13661V9.15274ZM131 3.11121V4.7266H130.051V17.5269C130.051 18.7061 129.404 19.2941 128.132 19.2941H126.176L125.816 17.711C126.396 17.7819 126.98 17.8186 127.565 17.8209C128.075 17.8209 128.341 17.5818 128.341 17.1198V4.7266H121.638V3.11121H131ZM127.022 7.26598V14.3737H122.188V7.26598H127.022ZM125.483 8.68429H123.717V12.9392H125.483V8.68429Z" fill="white"/>
<path fill-rule="evenodd" clip-rule="evenodd" d="M37.5631 7.53093C37.5631 6.01893 37.0667 4.82355 36.1006 3.97708C35.2459 3.23688 34.127 2.84969 32.9822 2.89802H24.6533V19.3749H32.649C33.9048 19.4097 35.1371 19.0405 36.1538 18.3249C37.3665 17.3557 37.9795 15.9406 37.9795 14.1249C38.033 12.8181 37.5761 11.5398 36.7002 10.5453C37.2941 9.64761 37.5949 8.59702 37.5631 7.53093ZM32.3159 9.14632H27.8183V6.3711H32.9822C34.1582 6.3711 34.3981 6.83308 34.3981 7.53093C34.4048 8.32893 34.1516 9.14632 32.3159 9.14632ZM32.649 15.9309H27.8183V12.5225H33.4053C33.5738 12.5239 33.7403 12.5588 33.8944 12.6249C34.0485 12.691 34.187 12.787 34.3015 12.9069C34.4783 13.0601 34.617 13.2501 34.707 13.4628C34.797 13.6755 34.8361 13.9052 34.8212 14.1346C34.8146 15.0199 34.558 15.9245 32.649 15.9245V15.9309ZM54.9571 9.32725H51.7921V12.697H54.9571C55.6234 12.697 55.8566 12.8391 55.9399 12.9166C56.0499 13.0717 56.2064 13.4497 56.2064 14.3091V15.9245H53.208C51.6156 15.9245 50.876 15.6014 50.5428 15.3429C49.7132 14.6968 49.2901 13.2817 49.2901 11.1429C49.2901 9.00417 49.7099 7.5891 50.5361 6.86217C50.8859 6.63279 51.6322 6.36786 53.2014 6.36786H59.448V2.90448H53.208C51.1825 2.90448 49.59 3.31156 48.4806 4.11925L48.4506 4.13862C46.8015 5.46646 45.9619 7.82494 45.9619 11.1429C45.9619 14.4609 46.8048 16.8 48.4572 18.0633C49.5733 18.9388 51.1725 19.3814 53.208 19.3814H59.538V14.3091C59.538 10.1899 57.0593 9.32725 54.9571 9.32725ZM40.2651 2.90771H43.5967V19.3846H40.2651V2.90771Z" fill="white"/>
<path d="M86.577 5.58277C86.3385 4.8627 85.9419 4.20134 85.4143 3.6443C85.1264 3.39417 84.7905 3.20152 84.4258 3.07734C84.0611 2.95317 83.6748 2.89991 83.2888 2.92062H81.3265L74.9966 19.3975H78.5913L79.9239 15.7823H87.0002L88.4994 19.3975H92.0874L86.577 5.58277ZM85.6475 12.3092H81.2532L83.4187 6.7103L85.6475 12.3092Z" fill="white"/>
<path d="M66.4479 2.9077H62.973C62.8847 2.9077 62.8 2.94172 62.7375 3.00231C62.675 3.0629 62.6399 3.14509 62.6399 3.23077V5.29524C62.6399 5.38092 62.675 5.46308 62.7375 5.52367C62.8 5.58425 62.8847 5.61832 62.973 5.61832H66.2713C67.0194 5.62447 67.759 5.77347 68.4477 6.05679C69.1365 6.34011 69.761 6.75219 70.2855 7.26955C70.81 7.78691 71.2243 8.3994 71.5048 9.07203C71.7852 9.74466 71.9263 10.4643 71.9199 11.1898C71.9136 11.9153 71.76 12.6325 71.4678 13.3004C71.1756 13.9683 70.7507 14.5739 70.2172 15.0826C69.6837 15.5912 69.0521 15.993 68.3585 16.2649C67.6649 16.5369 66.9228 16.6737 66.1747 16.6675H62.973C62.8847 16.6675 62.8 16.7016 62.7375 16.7622C62.675 16.8228 62.6399 16.9049 62.6399 16.9906V19.0777C62.6399 19.1634 62.675 19.2455 62.7375 19.3061C62.8 19.3667 62.8847 19.4008 62.973 19.4008H66.4479C67.5805 19.4225 68.7063 19.2249 69.7592 18.8196C70.8122 18.4143 71.7712 17.8094 72.5801 17.0403C73.3891 16.2711 74.0317 15.3533 74.4704 14.3404C74.9091 13.3275 75.1351 12.2399 75.1351 11.1413C75.1351 10.0427 74.9091 8.95514 74.4704 7.94225C74.0317 6.92936 73.3891 6.01147 72.5801 5.24235C71.7712 4.47324 70.8122 3.86834 69.7592 3.46302C68.7063 3.05771 67.5805 2.86014 66.4479 2.88186V2.9077ZM66.2546 18.4865H63.7759V17.8758H66.2546C70.1659 17.8758 73.1176 15.0522 73.1176 11.3077C73.1176 7.45016 70.1659 4.54245 66.2546 4.54245H63.7759V3.93186H66.2546C67.2491 3.92869 68.2342 4.11812 69.1521 4.48905C70.0701 4.85997 70.9024 5.40492 71.6003 6.09193C72.2982 6.77894 72.8476 7.59416 73.2163 8.4898C73.585 9.38545 73.7655 10.3435 73.7473 11.3077C73.7473 15.4011 70.5257 18.4865 66.2546 18.4865Z" fill="url(#paint0_linear_2051_8285)"/>
<path d="M64.219 7.55033H66.1913C67.0726 7.57076 67.9176 7.89472 68.575 8.46419C69.2324 9.03366 69.6594 9.81145 69.7794 10.6583V10.7133C69.8224 10.9246 69.9395 11.1149 70.1107 11.2521C70.2819 11.3893 70.4968 11.4649 70.7189 11.466H71.122C71.1258 11.1154 71.1091 10.7648 71.072 10.416C70.8886 9.25943 70.2834 8.20503 69.3664 7.4444C68.4494 6.68378 67.2814 6.26741 66.0747 6.27096H64.259C64.1334 6.13616 63.9693 6.04057 63.7876 5.99631C63.6058 5.95206 63.4146 5.96114 63.2382 6.02238C63.0618 6.08362 62.9081 6.19425 62.7967 6.34029C62.6852 6.48633 62.6209 6.6612 62.612 6.84269C62.6031 7.02419 62.65 7.20418 62.7467 7.35981C62.8434 7.51544 62.9856 7.6397 63.1552 7.71688C63.3249 7.79406 63.5143 7.82066 63.6995 7.79331C63.8848 7.76596 64.0575 7.6859 64.1957 7.56327L64.219 7.55033Z" fill="url(#paint1_linear_2051_8285)"/>
<path d="M70.0992 14.1281C70.1258 14.0926 70.1658 14.0312 70.2191 13.9408C70.293 13.8135 70.332 13.67 70.3324 13.524C70.3328 13.4135 70.3107 13.3041 70.2673 13.202C70.224 13.0999 70.1602 13.0071 70.0797 12.929C69.9991 12.851 69.9035 12.7891 69.7982 12.747C69.6929 12.705 69.58 12.6836 69.4662 12.684C69.3714 12.8759 69.26 13.0596 69.133 13.2332C68.7902 13.7057 68.3352 14.0912 67.8063 14.3572C67.2775 14.6232 66.6904 14.7618 66.0946 14.7613H63.9558V9.07843H62.6232V16.044H66.088C66.8635 16.0456 67.629 15.8736 68.3248 15.5413C69.0206 15.209 69.6278 14.7254 70.0992 14.1281Z" fill="url(#paint2_linear_2051_8285)"/>
<path fill-rule="evenodd" clip-rule="evenodd" d="M13.8726 17.4526C16.1847 16.828 17.9404 16.0483 19.1397 15.1135C18.5922 15.8796 17.8434 16.4897 16.9709 16.8807C16.0021 17.3148 14.9381 17.5112 13.8726 17.4526Z" fill="white"/>
<path fill-rule="evenodd" clip-rule="evenodd" d="M0 16.128C1.07276 14.6354 2.59085 14.6354 4.55425 16.128C7.49601 18.3702 12.7765 21.2972 16.9709 17.9534C12.8132 18.8644 10.1013 18.2151 3.87126 13.9052C1.85901 13.0652 0.568585 13.8062 0 16.128Z" fill="white"/>
<path fill-rule="evenodd" clip-rule="evenodd" d="M5.46045 17.8047C7.43495 19.9349 9.38725 21 11.3173 21C13.071 21.0569 14.7893 20.5137 16.1714 19.4654C14.5976 19.9232 12.9601 20.1412 11.3173 20.1115C9.99137 20.0361 8.03907 19.2672 5.46045 17.8047Z" fill="white"/>
<path fill-rule="evenodd" clip-rule="evenodd" d="M2.28882 12.1994C2.59865 7.99939 3.80802 2.90769 11.5939 0C9.87145 2.65892 5.73698 8.43231 10.4944 16.5189C5.78029 12.8746 4.34439 11.7891 2.28882 12.1994Z" fill="white"/>
<path fill-rule="evenodd" clip-rule="evenodd" d="M12.6533 17.1618C11.2974 16.5706 9.44838 8.25782 9.92812 7.24982C10.6144 7.75705 12.2036 11.4692 15.3785 11.7923C14.2192 12.5903 13.1431 14.2186 12.6533 17.1618Z" fill="white"/>
</g>
<defs>
<linearGradient id="paint0_linear_2051_8285" x1="9268.22" y1="17572.4" x2="9556.99" y2="17572.4" gradientUnits="userSpaceOnUse">
<stop stop-color="#0085F0"/>
<stop offset="1" stop-color="#00C7E9"/>
</linearGradient>
<linearGradient id="paint1_linear_2051_8285" x1="6333.35" y1="5851.78" x2="6530.05" y2="5851.78" gradientUnits="userSpaceOnUse">
<stop stop-color="#0085F0"/>
<stop offset="1" stop-color="#00C7E9"/>
</linearGradient>
<linearGradient id="paint2_linear_2051_8285" x1="5742.24" y1="7416.2" x2="5920.4" y2="7416.2" gradientUnits="userSpaceOnUse">
<stop stop-color="#0085F0"/>
<stop offset="1" stop-color="#00C7E9"/>
</linearGradient>
<clipPath id="clip0_2051_8285">
<rect width="131" height="21" fill="white"/>
</clipPath>
</defs>
</svg>
