<svg width="25" height="24" viewBox="0 0 25 24" fill="none" xmlns="http://www.w3.org/2000/svg">
<path d="M16.0445 17.1855C16.435 17.576 17.0682 17.576 17.4587 17.1855C17.8492 16.795 17.8492 16.1618 17.4587 15.7713L13.6875 12.0001L17.4587 8.22884C17.8492 7.83831 17.8492 7.20515 17.4587 6.81462C17.0682 6.4241 16.435 6.4241 16.0445 6.81462L12.2733 10.5859L8.50203 6.81462C8.1115 6.4241 7.47834 6.4241 7.08782 6.81462C6.69729 7.20515 6.69729 7.83831 7.08782 8.22884L10.8591 12.0001L7.08782 15.7713C6.69729 16.1618 6.69729 16.795 7.08782 17.1855C7.47834 17.576 8.1115 17.576 8.50203 17.1855L12.2733 13.4143L16.0445 17.1855Z" fill="black" fill-opacity="0.25"/>
</svg>
