<?xml version="1.0" standalone="no"?><!DOCTYPE svg PUBLIC "-//W3C//DTD SVG 1.1//EN" "http://www.w3.org/Graphics/SVG/1.1/DTD/svg11.dtd"><svg t="1642747550144" class="icon" viewBox="0 0 1024 1024" version="1.1" xmlns="http://www.w3.org/2000/svg" p-id="4154" width="20" height="20" xmlns:xlink="http://www.w3.org/1999/xlink"><defs><style type="text/css"></style></defs><path d="M469.333333 152.149333V85.333333h85.333334v66.816C711.232 173.013333 832 307.072 832 469.333333v234.666667h64v85.333333H128v-85.333333h64V469.333333c0-162.261333 120.768-296.32 277.333333-317.184zM277.333333 704h469.333334V469.333333c0-129.6-105.066667-234.666667-234.666667-234.666666s-234.666667 105.066667-234.666667 234.666666v234.666667z m66.282667 230.186667s-0.021333-0.021333 19.050667-38.186667c19.072-38.165333 19.072-38.186667 19.050666-38.186667l0.106667 0.064 1.493333 0.682667c1.408 0.64 3.733333 1.685333 6.826667 2.944A332.458667 332.458667 0 0 0 512 885.333333a332.458667 332.458667 0 0 0 121.856-23.829333 190.122667 190.122667 0 0 0 8.32-3.626667l0.106667-0.064s-0.021333 0.021333 19.050666 38.186667c19.072 38.165333 19.072 38.186667 19.050667 38.186667l-0.170667 0.085333-0.32 0.149333-0.874666 0.426667a273.813333 273.813333 0 0 1-12.864 5.653333A417.770667 417.770667 0 0 1 512 970.666667a417.770667 417.770667 0 0 1-154.154667-30.165334 273.813333 273.813333 0 0 1-12.864-5.653333l-0.874666-0.426667-0.32-0.149333-0.106667-0.064-0.042667-0.021333h-0.042666z" p-id="4155" fill="#367AFF"></path></svg>