<svg t="1637811062525" class="icon" viewBox="0 0 1024 1024" version="1.1" xmlns="http://www.w3.org/2000/svg" p-id="4997" width="18" height="18"><path d="M178.005333 631.68C221.653333 594.709333 279.936 576 341.333333 576h341.333334c61.397333 0 119.68 18.709333 163.328 55.68C890.325333 669.205333 917.333333 723.797333 917.333333 789.333333v64a64 64 0 0 1-64 64H170.666667a64 64 0 0 1-64-64v-64c0-65.536 27.008-120.128 71.338666-157.653333z m55.125334 65.130667C208 718.08 192 748.842667 192 789.333333v42.666667h640v-42.666667c0-40.490667-16-71.253333-41.130667-92.522666C765.013333 674.944 727.296 661.333333 682.666667 661.333333H341.333333c-44.629333 0-82.368 13.610667-108.202666 35.477334zM512 192a128 128 0 1 0 0 256 128 128 0 0 0 0-256z m-213.333333 128c0-117.824 95.509333-213.333333 213.333333-213.333333s213.333333 95.509333 213.333333 213.333333-95.509333 213.333333-213.333333 213.333333-213.333333-95.509333-213.333333-213.333333z" p-id="4998" fill="#262626"></path></svg>
