<?xml version="1.0" standalone="no"?><!DOCTYPE svg PUBLIC "-//W3C//DTD SVG 1.1//EN" "http://www.w3.org/Graphics/SVG/1.1/DTD/svg11.dtd"><svg t="1644891183543" class="icon" viewBox="0 0 1024 1024" version="1.1" xmlns="http://www.w3.org/2000/svg" p-id="4416" xmlns:xlink="http://www.w3.org/1999/xlink" width="20" height="20"><defs><style type="text/css"></style></defs><path d="M512 170.666667C323.477333 170.666667 170.666667 323.477333 170.666667 512s152.810667 341.333333 341.333333 341.333333 341.333333-152.810667 341.333333-341.333333S700.522667 170.666667 512 170.666667zM85.333333 512C85.333333 276.352 276.352 85.333333 512 85.333333s426.666667 191.018667 426.666667 426.666667-191.018667 426.666667-426.666667 426.666667S85.333333 747.648 85.333333 512z" p-id="4417" fill="#ffffff"></path><path d="M453.034667 381.909333a50.56 50.56 0 0 0-13.568 34.453334v9.856h-85.333334v-10.069334c0.106667-30.208 10.581333-65.344 37.248-93.226666C418.794667 294.272 459.392 277.333333 511.744 277.333333c60.522667 0 108.885333 29.845333 135.466667 70.464 25.813333 39.466667 33.386667 94.677333 1.045333 138.346667-11.968 16.170667-25.514667 29.333333-37.696 40.277333a966.186667 966.186667 0 0 1-15.189333 13.354667c-6.058667 5.226667-11.328 9.813333-17.194667 15.402667C560.64 571.84 554.666667 582.698667 554.666667 597.333333h-85.333334c0-49.344 26.026667-81.173333 50.005334-103.978666 6.762667-6.421333 15.210667-13.802667 22.784-20.373334 4.224-3.669333 8.149333-7.104 11.349333-9.984 10.517333-9.450667 19.2-18.176 26.218667-27.648 5.610667-7.573333 7.936-22.741333-3.882667-40.832-11.093333-16.938667-32.810667-31.850667-64.064-31.850666-33.258667 0-50.069333 10.24-58.709333 19.242666zM469.461333 661.333333v85.504h85.333334V661.333333h-85.333334z" p-id="4418" fill="#ffffff"></path></svg>