<svg width="14"
     height="14"
     viewBox="0 0 14 14"
     fill="none"
     xmlns="http://www.w3.org/2000/svg">
<path d="M6.0368 1.8097C6.81534 1.80807 7.57899 2.02307 8.24254 2.43068C8.90608 2.83828 9.4434 3.42246 9.79446 4.11799C10.1455 4.81353 10.2965 5.59302 10.2307 6.36949C10.1648 7.14596 9.88454 7.88881 9.4213 8.51512L9.03851 9.03452L8.51962 9.41649C7.79322 9.95385 6.91329 10.2429 6.01003 10.241C4.89301 10.2373 3.82321 9.78955 3.03598 8.99635C2.24875 8.20314 1.80859 7.12942 1.81229 6.01136C1.81599 4.89331 2.26325 3.82252 3.05572 3.03455C3.84819 2.24659 4.92096 1.806 6.03797 1.8097H6.0368ZM6.03797 2.76272e-05C5.0855 -0.00285913 4.14593 0.22052 3.29649 0.651811C2.44705 1.0831 1.71196 1.70999 1.15166 2.48096C0.591374 3.25194 0.221868 4.14499 0.0734919 5.08671C-0.0748842 6.02844 0.00210712 6.99195 0.298156 7.89809C0.594204 8.80423 1.10086 9.62715 1.77646 10.2992C2.45207 10.9712 3.27736 11.4731 4.18449 11.7638C5.09163 12.0545 6.05474 12.1255 6.99464 11.9711C7.93455 11.8167 8.82442 11.4413 9.59116 10.8756L12.4207 13.7078C12.504 13.7978 12.6046 13.8701 12.7165 13.9203C12.8284 13.9704 12.9492 13.9975 13.0718 13.9998C13.1944 14.0022 13.3161 13.9797 13.4298 13.9338C13.5435 13.8879 13.6468 13.8195 13.7335 13.7327C13.8201 13.6458 13.8884 13.5424 13.9341 13.4285C13.9799 13.3147 14.0022 13.1928 13.9998 13.0701C13.9974 12.9474 13.9702 12.8265 13.92 12.7145C13.8698 12.6026 13.7975 12.502 13.7075 12.4187L10.878 9.58651C11.5394 8.6908 11.9393 7.62879 12.033 6.5189C12.1268 5.409 11.9106 4.29487 11.4087 3.30074C10.9068 2.30662 10.1389 1.47156 9.19054 0.888749C8.24222 0.305935 7.15079 -0.00173297 6.03797 2.76272e-05V2.76272e-05Z"
      fill="black"
      fill-opacity="0.3" />
</svg>