<?xml version="1.0" standalone="no"?><!DOCTYPE svg PUBLIC "-//W3C//DTD SVG 1.1//EN" "http://www.w3.org/Graphics/SVG/1.1/DTD/svg11.dtd"><svg t="1640252447393" class="icon" viewBox="0 0 1024 1024" version="1.1" xmlns="http://www.w3.org/2000/svg" p-id="4524" width="14" height="14" xmlns:xlink="http://www.w3.org/1999/xlink"><defs><style type="text/css"></style></defs><path d="M653.781333 274.517333c-104.725333-104.746667-274.538667-104.746667-379.264 0-104.746667 104.746667-104.746667 274.56 0 379.285334 104.746667 104.746667 274.538667 104.746667 379.264 0 104.746667-104.746667 104.746667-274.56 0-379.285334zM171.093333 171.093333c161.856-161.856 424.298667-161.856 586.154667 0 144.213333 144.213333 159.936 368.277333 47.168 529.898667l133.845333 133.845333a73.152 73.152 0 1 1-103.424 103.445334l-133.845333-133.845334c-161.642667 112.768-385.685333 97.045333-529.898667-47.189333-161.856-161.856-161.856-424.277333 0-586.154667z" p-id="4525" fill="#8C8C8C"></path></svg>