<svg width="17"
     height="16"
     viewBox="0 0 17 16"
     fill="none"
     xmlns="http://www.w3.org/2000/svg">
<g clip-path="url(#clip0_2233:7129)">
<path d="M7.3992 2.06823C8.28896 2.06636 9.16171 2.31208 9.92004 2.77792C10.6784 3.24375 11.2925 3.91138 11.6937 4.70628C12.0949 5.50118 12.2675 6.39203 12.1922 7.27942C12.1169 8.16681 11.7966 9.01579 11.2672 9.73156L10.8297 10.3252L10.2367 10.7617C9.40653 11.3758 8.40091 11.7062 7.36861 11.704C6.09201 11.6997 4.86939 11.1881 3.96969 10.2815C3.07 9.37502 2.56695 8.14791 2.57119 6.87013C2.57542 5.59235 3.08658 4.36859 3.99226 3.46806C4.89793 2.56753 6.12395 2.064 7.40054 2.06823H7.3992ZM7.40054 3.15739e-05C6.312 -0.00326757 5.23821 0.252023 4.26742 0.744927C3.29663 1.23783 2.45652 1.95428 1.81619 2.83539C1.17586 3.7165 0.753563 4.73713 0.583991 5.81339C0.414418 6.88965 0.502408 7.99079 0.840749 9.02639C1.17909 10.062 1.75812 11.0025 2.53024 11.7705C3.30237 12.5385 4.24555 13.1122 5.28228 13.4443C6.319 13.7765 7.4197 13.8577 8.49388 13.6813C9.56806 13.5048 10.585 13.0757 11.4613 12.4293L14.6951 15.6661C14.7903 15.769 14.9053 15.8515 15.0331 15.9089C15.161 15.9662 15.2991 15.9972 15.4392 15.9998C15.5793 16.0025 15.7185 15.9768 15.8484 15.9243C15.9783 15.8718 16.0964 15.7937 16.1954 15.6945C16.2944 15.5953 16.3724 15.477 16.4247 15.3469C16.477 15.2168 16.5026 15.0775 16.4998 14.9373C16.497 14.797 16.466 14.6588 16.4086 14.5309C16.3512 14.403 16.2686 14.288 16.1657 14.1928L12.932 10.956C13.6879 9.93234 14.1449 8.71862 14.252 7.45017C14.3592 6.18172 14.1121 4.90842 13.5385 3.77227C12.9649 2.63613 12.0873 1.68179 11.0035 1.01571C9.91968 0.34964 8.67233 -0.00198054 7.40054 3.15739e-05Z"
      fill="white" />
</g>
<defs>
<clipPath id="clip0_2233:7129">
<rect width="16"
      height="16"
      fill="white"
      transform="translate(0.5)" />
</clipPath>
</defs>
</svg>