<svg width="12" height="12" viewBox="0 0 12 12" fill="none" xmlns="http://www.w3.org/2000/svg">
<g clip-path="url(#clip0_1905_4648)">
<path d="M5.1789 1.55401C5.84806 1.5526 6.50443 1.73723 7.07475 2.08724C7.64507 2.43726 8.1069 2.93889 8.40864 3.53616C8.71038 4.13342 8.84019 4.80278 8.78355 5.46954C8.72691 6.13629 8.48606 6.77419 8.0879 7.31201L7.75889 7.75802L7.31291 8.08602C6.68856 8.54746 5.93226 8.79568 5.15589 8.794C4.19581 8.79082 3.27631 8.40638 2.59968 7.72524C1.92305 7.04411 1.54473 6.12209 1.54791 5.16201C1.55109 4.20193 1.93552 3.28243 2.61665 2.6058C3.29778 1.92917 4.21983 1.55083 5.17991 1.55401H5.1789ZM5.17991 2.37237e-05C4.36125 -0.00245516 3.55369 0.189362 2.82359 0.559716C2.09349 0.93007 1.46167 1.46839 0.980098 2.13043C0.498524 2.79247 0.180931 3.55934 0.0534011 4.368C-0.074129 5.17667 -0.00795454 6.00404 0.246501 6.78216C0.500957 7.56027 0.936427 8.26692 1.51712 8.84399C2.0978 9.42106 2.80714 9.85209 3.58683 10.1017C4.36652 10.3513 5.19432 10.4123 6.00218 10.2797C6.81003 10.1471 7.57488 9.82472 8.2339 9.33901L10.6659 11.771C10.7375 11.8483 10.824 11.9104 10.9201 11.9535C11.0163 11.9965 11.1202 12.0198 11.2255 12.0218C11.3309 12.0238 11.4356 12.0045 11.5333 11.9651C11.631 11.9256 11.7198 11.8669 11.7943 11.7924C11.8687 11.7178 11.9274 11.629 11.9667 11.5312C12.0061 11.4335 12.0253 11.3288 12.0232 11.2234C12.0211 11.1181 11.9977 11.0142 11.9546 10.9181C11.9114 10.822 11.8493 10.7356 11.7719 10.664L9.33992 8.23202C9.90847 7.46287 10.2522 6.55091 10.3327 5.59783C10.4133 4.64476 10.2275 3.68804 9.79609 2.83437C9.3647 1.98071 8.70466 1.26364 7.88957 0.763177C7.07447 0.262709 6.13638 -0.00148812 5.17991 2.37237e-05Z" fill="#DCDEE2"/>
</g>
<defs>
<clipPath id="clip0_1905_4648">
<rect width="12" height="12" fill="white" transform="translate(-0.00012207)"/>
</clipPath>
</defs>
</svg>
