<svg width="69" height="69" viewBox="0 0 69 69" fill="none" xmlns="http://www.w3.org/2000/svg">
<circle cx="34.5" cy="34.5" r="34.5" fill="#F4F8FF"/>
<path d="M22.4248 31.325C22.4248 30.2204 23.3202 29.325 24.4248 29.325H46.2998C47.4044 29.325 48.2998 30.2204 48.2998 31.325V46.2138C48.2998 47.3183 47.4044 48.2138 46.2998 48.2138H24.4248C23.3202 48.2138 22.4248 47.3183 22.4248 46.2138L22.4248 31.325Z" fill="white"/>
<g clip-path="url(#clip0_2233:8967)">
<path d="M49.663 28.4798L42.211 21.0278C42.1073 20.9229 41.9836 20.8399 41.8473 20.7836C41.7111 20.7273 41.5649 20.6989 41.4175 20.7H21.8215C21.5271 20.7 21.2445 20.8157 21.0347 21.0223C20.8249 21.2289 20.7047 21.5097 20.7002 21.804V47.7825C20.7047 48.0769 20.8249 48.3577 21.0347 48.5642C21.2445 48.7708 21.5271 48.8865 21.8215 48.8865H48.8867C49.1795 48.8865 49.4603 48.7702 49.6673 48.5632C49.8744 48.3561 49.9908 48.0753 49.9908 47.7825V29.325C49.9969 29.1692 49.971 29.0137 49.9146 28.8683C49.8583 28.7229 49.7726 28.5907 49.663 28.4798ZM47.4895 32.1368V46.3853H23.2015V23.2013H40.9172L47.4377 29.7218L47.4895 32.1368Z" fill="#558EFD"/>
<path d="M22.9428 36.9323H47.7312C48.4171 36.9323 48.9731 36.3762 48.9731 35.6903V35.673C48.9731 34.9871 48.4171 34.431 47.7312 34.431H22.9428C22.2569 34.431 21.7009 34.9871 21.7009 35.673V35.6903C21.7009 36.3762 22.2569 36.9323 22.9428 36.9323Z" fill="#558EFD"/>
<path d="M22.9428 42.9008H47.7312C48.4171 42.9008 48.9731 42.3447 48.9731 41.6588V41.6415C48.9731 40.9555 48.4171 40.3995 47.7312 40.3995H22.9428C22.2569 40.3995 21.7009 40.9555 21.7009 41.6415V41.6588C21.7009 42.3447 22.2569 42.9008 22.9428 42.9008Z" fill="#558EFD"/>
<path d="M22.9428 30.9465L48.2141 30.9465C48.9 30.9465 49.4561 30.3904 49.4561 29.7045V29.6872C49.4561 29.0013 48.9 28.4452 48.2141 28.4452L22.9428 28.4452C22.2569 28.4452 21.7008 29.0013 21.7008 29.6872V29.7045C21.7008 30.3904 22.2569 30.9465 22.9428 30.9465Z" fill="#558EFD"/>
<path d="M29.8945 30.9465V47.058C29.8945 47.744 30.4505 48.3 31.1365 48.3H31.1537C31.8397 48.3 32.3958 47.744 32.3958 47.058V30.9465C32.3958 30.2606 31.8397 29.7045 31.1537 29.7045H31.1365C30.4505 29.7045 29.8945 30.2606 29.8945 30.9465Z" fill="#558EFD"/>
<path d="M38.6748 30.9466V47.058C38.6748 47.7439 39.2308 48.3 39.9168 48.3H39.934C40.62 48.3 41.176 47.7439 41.176 47.058V30.9466C41.176 30.2606 40.62 29.7045 39.934 29.7045H39.9168C39.2308 29.7045 38.6748 30.2606 38.6748 30.9466Z" fill="#558EFD"/>
</g>
<defs>
<clipPath id="clip0_2233:8967">
<rect width="29.2905" height="28.1865" fill="white" transform="translate(20.7002 20.7)"/>
</clipPath>
</defs>
</svg>
