<svg width="40" height="40" viewBox="0 0 40 40" fill="none" xmlns="http://www.w3.org/2000/svg">
<circle cx="20" cy="20" r="20" fill="#F4F8FF"/>
<g clip-path="url(#clip0_2540:3918)">
<path d="M13 19C13 17.8954 13.8954 17 15 17H26C27.1046 17 28 17.8954 28 19V25C28 26.1046 27.1046 27 26 27H15C13.8954 27 13 26.1046 13 25L13 19Z" fill="white"/>
<path d="M13 15C13 13.8954 13.8954 13 15 13H26C27.1046 13 28 13.8954 28 15C28 16.1046 27.1046 17 26 17H15C13.8954 17 13 16.1046 13 15Z" fill="#AFCEFF"/>
<path d="M13.3 21.38L27.67 21.38C28.0677 21.38 28.39 21.0576 28.39 20.66V20.65C28.39 20.2524 28.0677 19.93 27.67 19.93H13.3C12.9023 19.93 12.58 20.2524 12.58 20.65V20.66C12.58 21.0576 12.9023 21.38 13.3 21.38Z" fill="#558EFD"/>
<path d="M13.3 24.86L27.67 24.86C28.0677 24.86 28.39 24.5376 28.39 24.14V24.13C28.39 23.7323 28.0677 23.41 27.67 23.41H13.3C12.9023 23.41 12.58 23.7323 12.58 24.13V24.14C12.58 24.5376 12.9023 24.86 13.3 24.86Z" fill="#558EFD"/>
<path d="M13.3 17.92L27.95 17.92C28.3477 17.92 28.67 17.5976 28.67 17.2V17.19C28.67 16.7924 28.3477 16.47 27.95 16.47H13.3C12.9023 16.47 12.58 16.7924 12.58 17.19V17.2C12.58 17.5976 12.9023 17.92 13.3 17.92Z" fill="#558EFD"/>
<path d="M19.76 17.92V27.2599C19.76 27.6576 20.0824 27.98 20.48 27.98H20.49C20.8877 27.98 21.21 27.6576 21.21 27.2599V17.92C21.21 17.5223 20.8877 17.2 20.49 17.2H20.48C20.0824 17.2 19.76 17.5223 19.76 17.92Z" fill="#558EFD"/>
<path d="M27.44 13.44C27.4531 13.44 27.4661 13.4426 27.4783 13.4476C27.4904 13.4527 27.5015 13.46 27.5107 13.4693C27.52 13.4786 27.5274 13.4896 27.5324 13.5017C27.5374 13.5139 27.54 13.5269 27.54 13.54V26.6C27.5416 26.6135 27.5402 26.6272 27.5357 26.6401C27.5312 26.653 27.5239 26.6647 27.5143 26.6743C27.5047 26.6839 27.493 26.6912 27.4801 26.6957C27.4672 26.7001 27.4535 26.7016 27.44 26.7H13.54C13.5135 26.7 13.4881 26.6895 13.4693 26.6707C13.4505 26.652 13.44 26.6265 13.44 26.6V13.54C13.4423 13.5142 13.4535 13.4901 13.4718 13.4718C13.4901 13.4535 13.5143 13.4423 13.54 13.44H27.44ZM27.44 12H13.54C13.1316 12 12.7399 12.1622 12.451 12.451C12.1622 12.7399 12 13.1316 12 13.54V26.6C12 27.0084 12.1622 27.4002 12.451 27.689C12.7399 27.9778 13.1316 28.14 13.54 28.14H27.44C27.8484 28.14 28.2402 27.9778 28.529 27.689C28.8178 27.4002 28.98 27.0084 28.98 26.6V13.54C28.98 13.1316 28.8178 12.7399 28.529 12.451C28.2402 12.1622 27.8484 12 27.44 12Z" fill="#558EFD"/>
</g>
<defs>
<clipPath id="clip0_2540:3918">
<rect width="16.98" height="16.15" fill="white" transform="translate(12 12)"/>
</clipPath>
</defs>
</svg>
