<svg width="18" height="18" viewBox="0 0 18 18" fill="none" xmlns="http://www.w3.org/2000/svg">
<path d="M8.92348 2.49977C8.68706 2.26335 8.34812 2.16072 8.02026 2.2263L3.89547 3.05125C3.49961 3.13043 3.19018 3.43986 3.11101 3.83572L2.28605 7.96051C2.22048 8.28837 2.3231 8.62731 2.55952 8.86373L9.42893 15.7331C9.81946 16.1237 10.4526 16.1237 10.8431 15.7331L15.7929 10.7834C16.1834 10.3929 16.1834 9.7597 15.7929 9.36918L8.92348 2.49977Z" stroke="#848FB1" stroke-width="1.5"/>
<path d="M6.15864 6.50496C6.36574 6.50496 6.53364 6.33707 6.53364 6.12996C6.53364 5.92285 6.36574 5.75496 6.15864 5.75496C5.95153 5.75496 5.78364 5.92285 5.78364 6.12996C5.78364 6.33707 5.95153 6.50496 6.15864 6.50496Z" stroke="#848FB1" stroke-width="1.5"/>
<path d="M6.15698 6.50586C6.36409 6.50586 6.53198 6.33797 6.53198 6.13086C6.53198 5.92375 6.36409 5.75586 6.15698 5.75586C5.94988 5.75586 5.78198 5.92375 5.78198 6.13086C5.78198 6.33797 5.94988 6.50586 6.15698 6.50586Z" fill="#848FB1" stroke="#848FB1" stroke-width="1.5"/>
</svg>
