<svg width="68" height="68" viewBox="0 0 68 68" fill="none" xmlns="http://www.w3.org/2000/svg">
<circle cx="34" cy="34" r="34" fill="#F4F8FF"/>
<g clip-path="url(#clip0_2233:7132)">
<path d="M30.6001 28.3499C30.6001 27.2453 31.4955 26.3499 32.6001 26.3499L43.3501 26.3499L45.0501 28.5599V49.2149H30.6001V28.3499Z" fill="white"/>
<path fill-rule="evenodd" clip-rule="evenodd" d="M39.1175 32.5909C39.5952 33.0699 39.5942 33.8456 39.1152 34.3233L32.7402 40.6813C32.2616 41.1586 31.4869 41.1581 31.0089 40.6802L27.2851 36.9564L24.1903 40.0512C23.7119 40.5296 22.9363 40.5296 22.4579 40.0512C21.9795 39.5728 21.9795 38.7971 22.4579 38.3188L26.4189 34.3578C26.6486 34.128 26.9602 33.999 27.2851 33.999C27.61 33.999 27.9216 34.128 28.1513 34.3578L31.8763 38.0827L37.3851 32.5886C37.8641 32.1108 38.6397 32.1119 39.1175 32.5909Z" fill="#558EFD"/>
<path d="M40.4431 30.5831L35.156 31.994C35.0613 32.0194 34.9749 32.0692 34.9054 32.1384C34.8359 32.2076 34.7858 32.2937 34.76 32.3883C34.7342 32.4829 34.7336 32.5826 34.7584 32.6775C34.7831 32.7724 34.8323 32.8591 34.901 32.9291L38.777 36.8051C38.8469 36.8738 38.9337 36.9229 39.0286 36.9477C39.1235 36.9724 39.2232 36.9719 39.3178 36.9461C39.4124 36.9203 39.4986 36.8701 39.5677 36.8007C39.6369 36.7312 39.6867 36.6448 39.7121 36.5501L41.123 31.2631C41.1464 31.1691 41.1451 31.0707 41.1193 30.9775C41.0934 30.8842 41.0438 30.7992 40.9753 30.7307C40.9069 30.6623 40.8219 30.6127 40.7286 30.5868C40.6353 30.5609 40.537 30.5597 40.4431 30.5831Z" fill="#558EFD"/>
<path d="M46.0022 26.3669L38.6413 19.0229C38.439 18.8183 38.1639 18.7022 37.8763 18.7H23.3752C23.0822 18.7 22.8011 18.8164 22.5939 19.0236C22.3867 19.2308 22.2703 19.5119 22.2703 19.8049V33.1329C22.2748 33.4591 22.4074 33.7704 22.6397 33.9995C22.8719 34.2286 23.185 34.357 23.5113 34.3569C23.8359 34.3569 24.1472 34.228 24.3767 33.9984C24.6063 33.7689 24.7353 33.4576 24.7353 33.1329V21.2329H37.3663L43.7922 27.6589V46.8519H24.6843V43.4519C24.6843 43.1257 24.5559 42.8126 24.3268 42.5804C24.0977 42.3481 23.7865 42.2154 23.4603 42.2109C23.2973 42.2109 23.136 42.243 22.9854 42.3054C22.8348 42.3678 22.6979 42.4592 22.5827 42.5744C22.4675 42.6896 22.3761 42.8265 22.3138 42.977C22.2514 43.1276 22.2192 43.289 22.2192 43.4519V48.2119C22.2237 48.502 22.3421 48.7787 22.5489 48.9823C22.7556 49.1859 23.0341 49.3 23.3243 49.3H45.1692C45.4594 49.3 45.7379 49.1859 45.9446 48.9823C46.1514 48.7787 46.2698 48.502 46.2743 48.2119V27.1489C46.2833 26.8636 46.1863 26.5851 46.0022 26.3669Z" fill="#558EFD"/>
</g>
<defs>
<clipPath id="clip0_2233:7132">
<rect width="24.038" height="30.6" fill="white" transform="translate(22.1001 18.7)"/>
</clipPath>
</defs>
</svg>
